<?xml version="1.0" encoding="utf-8"?>
<!-- Generator: Adobe Illustrator 24.3.0, SVG Export Plug-In . SVG Version: 6.00 Build 0)  -->
<svg version="1.1" id="Capa_1" xmlns="http://www.w3.org/2000/svg" xmlns:xlink="http://www.w3.org/1999/xlink" x="0px" y="0px"
	 viewBox="0 0 480 480" style="enable-background:new 0 0 480 480;" xml:space="preserve">
<style type="text/css">
	.st0{fill:url(#SVGID_1_);}
	.st1{fill:url(#SVGID_2_);}
	.st2{fill:url(#SVGID_3_);}
	.st3{fill:url(#SVGID_4_);}
	.st4{fill:url(#SVGID_5_);}
	.st5{fill:url(#SVGID_6_);}
	.st6{fill:url(#SVGID_7_);}
	.st7{fill:url(#SVGID_8_);}
	.st8{fill:url(#SVGID_9_);}
	.st9{fill:url(#SVGID_10_);}
	.st10{fill:url(#SVGID_11_);}
</style>
<g>
	<g>
		<linearGradient id="SVGID_1_" gradientUnits="userSpaceOnUse" x1="380.8" y1="252.8711" x2="432" y2="252.8711">
			<stop  offset="0" style="stop-color:#00EFD1"/>
			<stop  offset="1" style="stop-color:#00ACEA"/>
		</linearGradient>
		<path class="st0" d="M430.7,101.8l-19.2-25.6c-2.3-2.8-6.5-3.2-9.3-0.9c-0.3,0.3-0.6,0.6-0.9,0.9l-19.2,25.6
			c-0.8,1.1-1.3,2.5-1.3,3.8v300.8c0,14.1,11.5,25.6,25.6,25.6s25.6-11.5,25.6-25.6V105.6C432,104.2,431.6,102.9,430.7,101.8z
			 M419.2,406.4c0,7.1-5.7,12.8-12.8,12.8s-12.8-5.7-12.8-12.8v-12.8h25.6V406.4z M419.2,380.8h-25.6V368h25.6V380.8z M419.2,355.2
			h-25.6V124.8h25.6V355.2z M419.2,112h-25.6v-4.3l12.8-17.1l12.8,17.1V112z"/>
	</g>
</g>
<g>
	<g>
		<linearGradient id="SVGID_2_" gradientUnits="userSpaceOnUse" x1="48" y1="240" x2="368.0256" y2="240">
			<stop  offset="0" style="stop-color:#00EFD1"/>
			<stop  offset="1" style="stop-color:#00ACEA"/>
		</linearGradient>
		<path class="st1" d="M361.6,48C361.6,48,361.6,48,361.6,48H80c-3.5,0-6.4,2.9-6.4,6.4v109.4C58.7,166.9,48,180,48,195.2V400
			c0,17.7,14.3,32,32,32h230.4c1.7,0,3.3-0.7,4.5-1.9l51.2-51.2c0.5-0.5,1-1.2,1.3-1.9c0.1-0.2,0.1-0.4,0.2-0.6
			c0.2-0.5,0.3-1.1,0.3-1.7c0-0.1,0.1-0.3,0.1-0.4v-320C368,50.9,365.2,48,361.6,48z M240,400c0,10.6-8.6,19.2-19.2,19.2H80
			c-10.6,0-19.2-8.6-19.2-19.2V195.2c0-10.6,8.6-19.2,19.2-19.2h140.8c10.6,0,19.2,8.6,19.2,19.2V400z M156.8,124.8v38.4H112v-38.4
			H156.8z M112,112V86.4h44.8V112H112z M214.4,124.8v38.4h-44.8v-38.4H214.4z M169.6,112V86.4h44.8V112H169.6z M227.2,163.8v-39H272
			v89.6h-19.2v-19.2C252.8,180,242.1,166.9,227.2,163.8z M227.2,112V86.4H272V112H227.2z M316.8,410.2v-29.4h29.4L316.8,410.2z
			 M355.2,368h-44.8c-3.5,0-6.4,2.9-6.4,6.4v44.8h-57.8c4.2-5.5,6.5-12.3,6.6-19.2V227.2H336c3.5,0,6.4-2.9,6.4-6.4V80
			c0-3.5-2.9-6.4-6.4-6.4H105.6c-3.5,0-6.4,2.9-6.4,6.4v83.2H86.4V60.8h268.8V368z M329.6,124.8v89.6h-44.8v-89.6H329.6z M284.8,112
			V86.4h44.8V112H284.8z"/>
	</g>
</g>
<g>
	<g>
		<linearGradient id="SVGID_3_" gradientUnits="userSpaceOnUse" x1="73.6" y1="220.8" x2="227.2" y2="220.8">
			<stop  offset="0" style="stop-color:#00EFD1"/>
			<stop  offset="1" style="stop-color:#00ACEA"/>
		</linearGradient>
		<path class="st2" d="M220.8,195.2H80c-3.5,0-6.4,2.9-6.4,6.4V240c0,3.5,2.9,6.4,6.4,6.4h140.8c3.5,0,6.4-2.9,6.4-6.4v-38.4
			C227.2,198.1,224.3,195.2,220.8,195.2z M214.4,233.6h-128V208h128V233.6z"/>
	</g>
</g>
<g>
	<g>
		<linearGradient id="SVGID_4_" gradientUnits="userSpaceOnUse" x1="182.4" y1="355.2" x2="233.6" y2="355.2">
			<stop  offset="0" style="stop-color:#00EFD1"/>
			<stop  offset="1" style="stop-color:#00ACEA"/>
		</linearGradient>
		<path class="st3" d="M227.2,310.4h-38.4c-3.5,0-6.4,2.9-6.4,6.4v76.8c0,3.5,2.9,6.4,6.4,6.4h38.4c3.5,0,6.4-2.9,6.4-6.4v-76.8
			C233.6,313.3,230.7,310.4,227.2,310.4z M220.8,387.2h-25.6v-64h25.6V387.2z"/>
	</g>
</g>
<g>
	<g>
		<linearGradient id="SVGID_5_" gradientUnits="userSpaceOnUse" x1="182.4" y1="278.4" x2="233.6" y2="278.4">
			<stop  offset="0" style="stop-color:#00EFD1"/>
			<stop  offset="1" style="stop-color:#00ACEA"/>
		</linearGradient>
		<path class="st4" d="M227.2,259.2h-38.4c-3.5,0-6.4,2.9-6.4,6.4v25.6c0,3.5,2.9,6.4,6.4,6.4h38.4c3.5,0,6.4-2.9,6.4-6.4v-25.6
			C233.6,262.1,230.7,259.2,227.2,259.2z M220.8,284.8h-25.6V272h25.6V284.8z"/>
	</g>
</g>
<g>
	<g>
		<linearGradient id="SVGID_6_" gradientUnits="userSpaceOnUse" x1="124.8" y1="329.6" x2="176" y2="329.6">
			<stop  offset="0" style="stop-color:#00EFD1"/>
			<stop  offset="1" style="stop-color:#00ACEA"/>
		</linearGradient>
		<path class="st5" d="M169.6,310.4h-38.4c-3.5,0-6.4,2.9-6.4,6.4v25.6c0,3.5,2.9,6.4,6.4,6.4h38.4c3.5,0,6.4-2.9,6.4-6.4v-25.6
			C176,313.3,173.1,310.4,169.6,310.4z M163.2,336h-25.6v-12.8h25.6V336z"/>
	</g>
</g>
<g>
	<g>
		<linearGradient id="SVGID_7_" gradientUnits="userSpaceOnUse" x1="124.8" y1="278.4" x2="176" y2="278.4">
			<stop  offset="0" style="stop-color:#00EFD1"/>
			<stop  offset="1" style="stop-color:#00ACEA"/>
		</linearGradient>
		<path class="st6" d="M169.6,259.2h-38.4c-3.5,0-6.4,2.9-6.4,6.4v25.6c0,3.5,2.9,6.4,6.4,6.4h38.4c3.5,0,6.4-2.9,6.4-6.4v-25.6
			C176,262.1,173.1,259.2,169.6,259.2z M163.2,284.8h-25.6V272h25.6V284.8z"/>
	</g>
</g>
<g>
	<g>
		<linearGradient id="SVGID_8_" gradientUnits="userSpaceOnUse" x1="67.2" y1="329.6" x2="118.4" y2="329.6">
			<stop  offset="0" style="stop-color:#00EFD1"/>
			<stop  offset="1" style="stop-color:#00ACEA"/>
		</linearGradient>
		<path class="st7" d="M112,310.4H73.6c-3.5,0-6.4,2.9-6.4,6.4v25.6c0,3.5,2.9,6.4,6.4,6.4H112c3.5,0,6.4-2.9,6.4-6.4v-25.6
			C118.4,313.3,115.5,310.4,112,310.4z M105.6,336H80v-12.8h25.6V336z"/>
	</g>
</g>
<g>
	<g>
		<linearGradient id="SVGID_9_" gradientUnits="userSpaceOnUse" x1="67.2" y1="278.4" x2="118.4" y2="278.4">
			<stop  offset="0" style="stop-color:#00EFD1"/>
			<stop  offset="1" style="stop-color:#00ACEA"/>
		</linearGradient>
		<path class="st8" d="M112,259.2H73.6c-3.5,0-6.4,2.9-6.4,6.4v25.6c0,3.5,2.9,6.4,6.4,6.4H112c3.5,0,6.4-2.9,6.4-6.4v-25.6
			C118.4,262.1,115.5,259.2,112,259.2z M105.6,284.8H80V272h25.6V284.8z"/>
	</g>
</g>
<g>
	<g>
		<linearGradient id="SVGID_10_" gradientUnits="userSpaceOnUse" x1="124.8" y1="380.8" x2="176" y2="380.8">
			<stop  offset="0" style="stop-color:#00EFD1"/>
			<stop  offset="1" style="stop-color:#00ACEA"/>
		</linearGradient>
		<path class="st9" d="M169.6,361.6h-38.4c-3.5,0-6.4,2.9-6.4,6.4v25.6c0,3.5,2.9,6.4,6.4,6.4h38.4c3.5,0,6.4-2.9,6.4-6.4V368
			C176,364.5,173.1,361.6,169.6,361.6z M163.2,387.2h-25.6v-12.8h25.6V387.2z"/>
	</g>
</g>
<g>
	<g>
		<linearGradient id="SVGID_11_" gradientUnits="userSpaceOnUse" x1="67.2" y1="380.8" x2="118.4" y2="380.8">
			<stop  offset="0" style="stop-color:#00EFD1"/>
			<stop  offset="1" style="stop-color:#00ACEA"/>
		</linearGradient>
		<path class="st10" d="M112,361.6H73.6c-3.5,0-6.4,2.9-6.4,6.4v25.6c0,3.5,2.9,6.4,6.4,6.4H112c3.5,0,6.4-2.9,6.4-6.4V368
			C118.4,364.5,115.5,361.6,112,361.6z M105.6,387.2H80v-12.8h25.6V387.2z"/>
	</g>
</g>
</svg>
