<?xml version="1.0" encoding="utf-8"?>
<!-- Generator: Adobe Illustrator 24.3.0, SVG Export Plug-In . SVG Version: 6.00 Build 0)  -->
<svg version="1.1" id="Capa_1" xmlns="http://www.w3.org/2000/svg" xmlns:xlink="http://www.w3.org/1999/xlink" x="0px" y="0px"
	 viewBox="0 0 512 512" style="enable-background:new 0 0 512 512;" xml:space="preserve">
<style type="text/css">
	.st0{fill:url(#SVGID_1_);}
	.st1{fill:url(#SVGID_2_);}
	.st2{fill:url(#SVGID_3_);}
	.st3{fill:url(#SVGID_4_);}
	.st4{fill:url(#SVGID_5_);}
	.st5{fill:url(#SVGID_6_);}
	.st6{fill:url(#SVGID_7_);}
	.st7{fill:url(#SVGID_8_);}
	.st8{fill:url(#SVGID_9_);}
	.st9{fill:url(#SVGID_10_);}
	.st10{fill:url(#SVGID_11_);}
	.st11{fill:url(#SVGID_12_);}
	.st12{fill:url(#SVGID_13_);}
	.st13{fill:url(#SVGID_14_);}
	.st14{fill:url(#SVGID_15_);}
</style>
<g>
	<g>
		<linearGradient id="SVGID_1_" gradientUnits="userSpaceOnUse" x1="103.041" y1="199.1483" x2="408.959" y2="199.1483">
			<stop  offset="0" style="stop-color:#00EFD1"/>
			<stop  offset="1" style="stop-color:#00ACEA"/>
		</linearGradient>
		<path class="st0" d="M402.9,49.2H109.1c-3.3,0-6.1,2.7-6.1,6.1v287.8c0,3.3,2.7,6.1,6.1,6.1c3.3,0,6.1-2.7,6.1-6.1V61.3h281.7
			v38.1c0,3.3,2.7,6.1,6.1,6.1c3.3,0,6.1-2.7,6.1-6.1V55.2C409,51.9,406.2,49.2,402.9,49.2z"/>
		<linearGradient id="SVGID_2_" gradientUnits="userSpaceOnUse" x1="103.041" y1="292.214" x2="408.959" y2="292.214">
			<stop  offset="0" style="stop-color:#00EFD1"/>
			<stop  offset="1" style="stop-color:#00ACEA"/>
		</linearGradient>
		<path class="st1" d="M402.9,121.6c-3.3,0-6.1,2.7-6.1,6.1v323H115.2v-79.4c0-3.3-2.7-6.1-6.1-6.1c-3.3,0-6.1,2.7-6.1,6.1v85.4
			c0,3.3,2.7,6.1,6.1,6.1h293.8c3.3,0,6.1-2.7,6.1-6.1V127.7C409,124.3,406.2,121.6,402.9,121.6z"/>
		<linearGradient id="SVGID_3_" gradientUnits="userSpaceOnUse" x1="129.1571" y1="175.2055" x2="222.8859" y2="175.2055">
			<stop  offset="0" style="stop-color:#00EFD1"/>
			<stop  offset="1" style="stop-color:#00ACEA"/>
		</linearGradient>
		<path class="st2" d="M129.2,175.2c0,25.8,21,46.9,46.9,46.9s46.9-21,46.9-46.9s-21-46.9-46.9-46.9S129.2,149.4,129.2,175.2z
			 M176,210c-19.2,0-34.7-15.6-34.7-34.7c0-17.1,12.4-31.3,28.7-34.2v34.2c0,3.3,2.7,6.1,6.1,6.1h34.2
			C207.4,197.5,193.1,210,176,210z M210.2,169.1h-28.1V141C196.4,143.5,207.7,154.8,210.2,169.1z"/>
		<linearGradient id="SVGID_4_" gradientUnits="userSpaceOnUse" x1="132.421" y1="417.5894" x2="183.7127" y2="417.5894">
			<stop  offset="0" style="stop-color:#00EFD1"/>
			<stop  offset="1" style="stop-color:#00ACEA"/>
		</linearGradient>
		<path class="st3" d="M138.5,398.5c-3.3,0-6.1,2.7-6.1,6.1v26.1c0,3.3,2.7,6.1,6.1,6.1h39.2c3.3,0,6.1-2.7,6.1-6.1v-26.1
			c0-3.3-2.7-6.1-6.1-6.1H138.5z M171.6,424.6h-27.1v-14h27.1V424.6z"/>
		<linearGradient id="SVGID_5_" gradientUnits="userSpaceOnUse" x1="197.7103" y1="398.0027" x2="249.0012" y2="398.0027">
			<stop  offset="0" style="stop-color:#00EFD1"/>
			<stop  offset="1" style="stop-color:#00ACEA"/>
		</linearGradient>
		<path class="st4" d="M203.8,436.7h39.2c3.3,0,6.1-2.7,6.1-6.1v-65.3c0-3.3-2.7-6.1-6.1-6.1h-39.2c-3.3,0-6.1,2.7-6.1,6.1v65.3
			C197.7,434,200.4,436.7,203.8,436.7z M209.8,371.4h27.1v53.2h-27.1V371.4z"/>
		<linearGradient id="SVGID_6_" gradientUnits="userSpaceOnUse" x1="262.9988" y1="373.5194" x2="314.2897" y2="373.5194">
			<stop  offset="0" style="stop-color:#00EFD1"/>
			<stop  offset="1" style="stop-color:#00ACEA"/>
		</linearGradient>
		<path class="st5" d="M269.1,310.3c-3.3,0-6.1,2.7-6.1,6.1v114.3c0,3.3,2.7,6.1,6.1,6.1h39.2c3.3,0,6.1-2.7,6.1-6.1V316.4
			c0-3.3-2.7-6.1-6.1-6.1H269.1z M302.2,424.6h-27.1V322.5h27.1V424.6z"/>
		<linearGradient id="SVGID_7_" gradientUnits="userSpaceOnUse" x1="328.2905" y1="357.1971" x2="379.5758" y2="357.1971">
			<stop  offset="0" style="stop-color:#00EFD1"/>
			<stop  offset="1" style="stop-color:#00ACEA"/>
		</linearGradient>
		<path class="st6" d="M373.5,311.2c3.3,0,6.1-2.7,6.1-6.1v-21.4c0-3.3-2.7-6.1-6.1-6.1h-39.2c-3.3,0-6.1,2.7-6.1,6.1v146.9
			c0,3.3,2.7,6.1,6.1,6.1h39.2c3.3,0,6.1-2.7,6.1-6.1v-97.2c0-3.3-2.7-6.1-6.1-6.1c-3.3,0-6.1,2.7-6.1,6.1v91.2h-27V289.8h27v15.3
			C367.5,308.5,370.2,311.2,373.5,311.2z"/>
		<linearGradient id="SVGID_8_" gradientUnits="userSpaceOnUse" x1="184.6522" y1="94.4107" x2="327.3485" y2="94.4107">
			<stop  offset="0" style="stop-color:#00EFD1"/>
			<stop  offset="1" style="stop-color:#00ACEA"/>
		</linearGradient>
		<path class="st7" d="M321.3,75.3H190.7c-3.3,0-6.1,2.7-6.1,6.1v26.1c0,3.3,2.7,6.1,6.1,6.1h130.6c3.3,0,6.1-2.7,6.1-6.1V81.4
			C327.3,78,324.6,75.3,321.3,75.3L321.3,75.3z M315.2,101.4H196.8v-14h118.5L315.2,101.4L315.2,101.4z"/>
		<linearGradient id="SVGID_9_" gradientUnits="userSpaceOnUse" x1="249.9408" y1="134.4003" x2="382.8429" y2="134.4003">
			<stop  offset="0" style="stop-color:#00EFD1"/>
			<stop  offset="1" style="stop-color:#00ACEA"/>
		</linearGradient>
		<path class="st8" d="M376.8,128.3H256c-3.3,0-6.1,2.7-6.1,6.1c0,3.3,2.7,6.1,6.1,6.1h120.8c3.3,0,6.1-2.7,6.1-6.1
			C382.8,131.1,380.1,128.3,376.8,128.3z"/>
		<linearGradient id="SVGID_10_" gradientUnits="userSpaceOnUse" x1="249.9408" y1="161.6038" x2="382.8429" y2="161.6038">
			<stop  offset="0" style="stop-color:#00EFD1"/>
			<stop  offset="1" style="stop-color:#00ACEA"/>
		</linearGradient>
		<path class="st9" d="M376.8,155.5H256c-3.3,0-6.1,2.7-6.1,6.1s2.7,6.1,6.1,6.1h120.8c3.3,0,6.1-2.7,6.1-6.1
			S380.1,155.5,376.8,155.5z"/>
		<linearGradient id="SVGID_11_" gradientUnits="userSpaceOnUse" x1="249.9408" y1="188.8073" x2="382.8429" y2="188.8073">
			<stop  offset="0" style="stop-color:#00EFD1"/>
			<stop  offset="1" style="stop-color:#00ACEA"/>
		</linearGradient>
		<path class="st10" d="M382.8,188.8c0-3.3-2.7-6.1-6.1-6.1H256c-3.3,0-6.1,2.7-6.1,6.1c0,3.3,2.7,6.1,6.1,6.1h120.8
			C380.1,194.9,382.8,192.2,382.8,188.8z"/>
		<linearGradient id="SVGID_12_" gradientUnits="userSpaceOnUse" x1="249.9408" y1="216.0108" x2="333.8771" y2="216.0108">
			<stop  offset="0" style="stop-color:#00EFD1"/>
			<stop  offset="1" style="stop-color:#00ACEA"/>
		</linearGradient>
		<path class="st11" d="M333.9,216c0-3.3-2.7-6.1-6.1-6.1H256c-3.3,0-6.1,2.7-6.1,6.1c0,3.3,2.7,6.1,6.1,6.1h71.8
			C331.2,222.1,333.9,219.4,333.9,216z"/>
		<linearGradient id="SVGID_13_" gradientUnits="userSpaceOnUse" x1="139.7664" y1="256" x2="262.0592" y2="256">
			<stop  offset="0" style="stop-color:#00EFD1"/>
			<stop  offset="1" style="stop-color:#00ACEA"/>
		</linearGradient>
		<path class="st12" d="M256,249.9H145.8c-3.3,0-6.1,2.7-6.1,6.1c0,3.3,2.7,6.1,6.1,6.1H256c3.3,0,6.1-2.7,6.1-6.1
			C262.1,252.7,259.3,249.9,256,249.9z"/>
		<linearGradient id="SVGID_14_" gradientUnits="userSpaceOnUse" x1="139.7664" y1="283.2035" x2="262.0592" y2="283.2035">
			<stop  offset="0" style="stop-color:#00EFD1"/>
			<stop  offset="1" style="stop-color:#00ACEA"/>
		</linearGradient>
		<path class="st13" d="M262.1,283.2c0-3.3-2.7-6.1-6.1-6.1H145.8c-3.3,0-6.1,2.7-6.1,6.1c0,3.3,2.7,6.1,6.1,6.1H256
			C259.3,289.3,262.1,286.5,262.1,283.2z"/>
		<linearGradient id="SVGID_15_" gradientUnits="userSpaceOnUse" x1="139.7664" y1="310.407" x2="213.0934" y2="310.407">
			<stop  offset="0" style="stop-color:#00EFD1"/>
			<stop  offset="1" style="stop-color:#00ACEA"/>
		</linearGradient>
		<path class="st14" d="M213.1,310.4c0-3.3-2.7-6.1-6.1-6.1h-61.2c-3.3,0-6.1,2.7-6.1,6.1c0,3.3,2.7,6.1,6.1,6.1H207
			C210.4,316.5,213.1,313.8,213.1,310.4z"/>
	</g>
</g>
</svg>
