<?xml version="1.0" encoding="utf-8"?>
<!-- Generator: Adobe Illustrator 24.3.0, SVG Export Plug-In . SVG Version: 6.00 Build 0)  -->
<svg version="1.1" id="Capa_1" xmlns="http://www.w3.org/2000/svg" xmlns:xlink="http://www.w3.org/1999/xlink" x="0px" y="0px"
	 viewBox="0 0 512 512" style="enable-background:new 0 0 512 512;" xml:space="preserve">
<style type="text/css">
	.st0{fill:url(#SVGID_1_);}
	.st1{fill:url(#SVGID_2_);}
	.st2{fill:url(#SVGID_3_);}
	.st3{fill:url(#SVGID_4_);}
	.st4{fill:url(#SVGID_5_);}
	.st5{fill:url(#SVGID_6_);}
	.st6{fill:url(#SVGID_7_);}
	.st7{fill:url(#SVGID_8_);}
	.st8{fill:url(#SVGID_9_);}
	.st9{fill:url(#SVGID_10_);}
	.st10{fill:url(#SVGID_11_);}
	.st11{fill:url(#SVGID_12_);}
	.st12{fill:url(#SVGID_13_);}
	.st13{fill:url(#SVGID_14_);}
	.st14{fill:url(#SVGID_15_);}
</style>
<g>
	<g>
		<linearGradient id="SVGID_1_" gradientUnits="userSpaceOnUse" x1="64" y1="256" x2="448" y2="256">
			<stop  offset="0" style="stop-color:#00EFD1"/>
			<stop  offset="1" style="stop-color:#00ACEA"/>
		</linearGradient>
		<path class="st0" d="M403,94h-18V64h-30v30H157V64h-30v30h-18c-24.8,0-45,20.2-45,45v264c0,24.8,20.2,45,45,45h294
			c24.8,0,45-20.2,45-45V139C448,114.2,427.8,94,403,94z M418,403c0,8.3-6.7,15-15,15H109c-8.3,0-15-6.7-15-15V205h324V403z
			 M418,175H94v-36c0-8.3,6.7-15,15-15h18v30h30v-30h198v30h30v-30h18c8.3,0,15,6.7,15,15V175z"/>
	</g>
</g>
<g>
	<g>
		<linearGradient id="SVGID_2_" gradientUnits="userSpaceOnUse" x1="76" y1="250" x2="116" y2="250">
			<stop  offset="0" style="stop-color:#00EFD1"/>
			<stop  offset="1" style="stop-color:#00ACEA"/>
		</linearGradient>
		<rect x="76" y="230" class="st1" width="40" height="40"/>
	</g>
</g>
<g>
	<g>
		<linearGradient id="SVGID_3_" gradientUnits="userSpaceOnUse" x1="156" y1="250" x2="196" y2="250">
			<stop  offset="0" style="stop-color:#00EFD1"/>
			<stop  offset="1" style="stop-color:#00ACEA"/>
		</linearGradient>
		<rect x="156" y="230" class="st2" width="40" height="40"/>
	</g>
</g>
<g>
	<g>
		<linearGradient id="SVGID_4_" gradientUnits="userSpaceOnUse" x1="236" y1="250" x2="276" y2="250">
			<stop  offset="0" style="stop-color:#00EFD1"/>
			<stop  offset="1" style="stop-color:#00ACEA"/>
		</linearGradient>
		<rect x="236" y="230" class="st3" width="40" height="40"/>
	</g>
</g>
<g>
	<g>
		<linearGradient id="SVGID_5_" gradientUnits="userSpaceOnUse" x1="316" y1="250" x2="356" y2="250">
			<stop  offset="0" style="stop-color:#00EFD1"/>
			<stop  offset="1" style="stop-color:#00ACEA"/>
		</linearGradient>
		<rect x="316" y="230" class="st4" width="40" height="40"/>
	</g>
</g>
<g>
	<g>
		<linearGradient id="SVGID_6_" gradientUnits="userSpaceOnUse" x1="396" y1="250" x2="436" y2="250">
			<stop  offset="0" style="stop-color:#00EFD1"/>
			<stop  offset="1" style="stop-color:#00ACEA"/>
		</linearGradient>
		<rect x="396" y="230" class="st5" width="40" height="40"/>
	</g>
</g>
<g>
	<g>
		<linearGradient id="SVGID_7_" gradientUnits="userSpaceOnUse" x1="76" y1="330" x2="116" y2="330">
			<stop  offset="0" style="stop-color:#00EFD1"/>
			<stop  offset="1" style="stop-color:#00ACEA"/>
		</linearGradient>
		<rect x="76" y="310" class="st6" width="40" height="40"/>
	</g>
</g>
<g>
	<g>
		<linearGradient id="SVGID_8_" gradientUnits="userSpaceOnUse" x1="156" y1="330" x2="196" y2="330">
			<stop  offset="0" style="stop-color:#00EFD1"/>
			<stop  offset="1" style="stop-color:#00ACEA"/>
		</linearGradient>
		<rect x="156" y="310" class="st7" width="40" height="40"/>
	</g>
</g>
<g>
	<g>
		<linearGradient id="SVGID_9_" gradientUnits="userSpaceOnUse" x1="236" y1="330" x2="276" y2="330">
			<stop  offset="0" style="stop-color:#00EFD1"/>
			<stop  offset="1" style="stop-color:#00ACEA"/>
		</linearGradient>
		<rect x="236" y="310" class="st8" width="40" height="40"/>
	</g>
</g>
<g>
	<g>
		<linearGradient id="SVGID_10_" gradientUnits="userSpaceOnUse" x1="316" y1="330" x2="356" y2="330">
			<stop  offset="0" style="stop-color:#00EFD1"/>
			<stop  offset="1" style="stop-color:#00ACEA"/>
		</linearGradient>
		<rect x="316" y="310" class="st9" width="40" height="40"/>
	</g>
</g>
<g>
	<g>
		<linearGradient id="SVGID_11_" gradientUnits="userSpaceOnUse" x1="76" y1="410" x2="116" y2="410">
			<stop  offset="0" style="stop-color:#00EFD1"/>
			<stop  offset="1" style="stop-color:#00ACEA"/>
		</linearGradient>
		<rect x="76" y="390" class="st10" width="40" height="40"/>
	</g>
</g>
<g>
	<g>
		<linearGradient id="SVGID_12_" gradientUnits="userSpaceOnUse" x1="156" y1="410" x2="196" y2="410">
			<stop  offset="0" style="stop-color:#00EFD1"/>
			<stop  offset="1" style="stop-color:#00ACEA"/>
		</linearGradient>
		<rect x="156" y="390" class="st11" width="40" height="40"/>
	</g>
</g>
<g>
	<g>
		<linearGradient id="SVGID_13_" gradientUnits="userSpaceOnUse" x1="236" y1="410" x2="276" y2="410">
			<stop  offset="0" style="stop-color:#00EFD1"/>
			<stop  offset="1" style="stop-color:#00ACEA"/>
		</linearGradient>
		<rect x="236" y="390" class="st12" width="40" height="40"/>
	</g>
</g>
<g>
	<g>
		<linearGradient id="SVGID_14_" gradientUnits="userSpaceOnUse" x1="316" y1="410" x2="356" y2="410">
			<stop  offset="0" style="stop-color:#00EFD1"/>
			<stop  offset="1" style="stop-color:#00ACEA"/>
		</linearGradient>
		<rect x="316" y="390" class="st13" width="40" height="40"/>
	</g>
</g>
<g>
	<g>
		<linearGradient id="SVGID_15_" gradientUnits="userSpaceOnUse" x1="396" y1="330" x2="436" y2="330">
			<stop  offset="0" style="stop-color:#00EFD1"/>
			<stop  offset="1" style="stop-color:#00ACEA"/>
		</linearGradient>
		<rect x="396" y="310" class="st14" width="40" height="40"/>
	</g>
</g>
</svg>
