<?xml version="1.0" encoding="utf-8"?>
<!-- Generator: Adobe Illustrator 24.3.0, SVG Export Plug-In . SVG Version: 6.00 Build 0)  -->
<svg version="1.1" id="Capa_1" xmlns="http://www.w3.org/2000/svg" xmlns:xlink="http://www.w3.org/1999/xlink" x="0px" y="0px"
	 viewBox="0 0 512 512" style="enable-background:new 0 0 512 512;" xml:space="preserve">
<style type="text/css">
	.st0{fill:url(#SVGID_1_);}
</style>
<g>
	<g>
		<linearGradient id="SVGID_1_" gradientUnits="userSpaceOnUse" x1="68.001" y1="256.0009" x2="444" y2="256.0009">
			<stop  offset="0" style="stop-color:#00EFD1"/>
			<stop  offset="1" style="stop-color:#00ACEA"/>
		</linearGradient>
		<path class="st0" d="M276.8,256L439.7,93.1c5.7-5.7,5.7-15,0-20.8s-15-5.7-20.8,0L256,235.2L93.1,72.3c-5.7-5.7-15-5.7-20.8,0
			c-5.7,5.7-5.7,15,0,20.8L235.2,256L72.3,418.9c-5.7,5.7-5.7,15,0,20.8c2.9,2.9,6.6,4.3,10.4,4.3s7.5-1.4,10.4-4.3L256,276.8
			l162.9,162.9c2.9,2.9,6.6,4.3,10.4,4.3s7.5-1.4,10.4-4.3c5.7-5.7,5.7-15,0-20.8L276.8,256z"/>
	</g>
</g>
</svg>
