<?xml version="1.0" encoding="utf-8"?>
<!-- Generator: Adobe Illustrator 24.3.0, SVG Export Plug-In . SVG Version: 6.00 Build 0)  -->
<svg version="1.1" id="Layer_1" xmlns="http://www.w3.org/2000/svg" xmlns:xlink="http://www.w3.org/1999/xlink" x="0px" y="0px"
	 viewBox="0 0 512 512" style="enable-background:new 0 0 512 512;" xml:space="preserve">
<style type="text/css">
	.st0{fill:url(#SVGID_1_);}
</style>
<linearGradient id="SVGID_1_" gradientUnits="userSpaceOnUse" x1="256" y1="498.177" x2="256" y2="23.978" gradientTransform="matrix(1 0 0 -1 0 512)">
	<stop  offset="0" style="stop-color:#00EFD1"/>
	<stop  offset="1" style="stop-color:#00ACEA"/>
</linearGradient>
<path class="st0" d="M451.5,324.8L416.7,309L386,259.7c-9.1-14.7-25.2-23.7-42.5-23.7H212.2c-15.7,0.1-30.4,7.5-39.9,20l-39.5,52
	l-66.3,18.2C49.1,331,37,346.8,37,364.9v25.4c0.1,22,17.9,39.8,39.9,39.7c0.1,0,0.1,0,0.2,0H82c7.5,26.9,35.3,42.7,62.2,35.3
	c17.1-4.7,30.5-18.1,35.3-35.3h148.1c7.5,26.9,35.3,42.7,62.2,35.3c17.1-4.7,30.5-18.1,35.3-35.3h9.9c22,0.2,39.9-17.5,40.1-39.5
	c0-0.1,0-0.1,0-0.2v-29C475,345.6,465.8,331.3,451.5,324.8L451.5,324.8z M130.7,447.5c-16.9,0-30.6-13.7-30.6-30.6
	c0-16.9,13.7-30.6,30.6-30.6s30.6,13.7,30.6,30.6C161.3,433.8,147.6,447.5,130.7,447.5z M376.3,447.5c-16.9,0-30.6-13.7-30.6-30.6
	s13.7-30.6,30.6-30.6c16.9,0,30.6,13.7,30.6,30.6C406.9,433.8,393.2,447.4,376.3,447.5L376.3,447.5z M455,390.3
	c0,10.9-8.9,19.7-19.9,19.7c-0.1,0-0.1,0-0.2,0h-8.5c-3.2-24-24.5-44.1-50.2-44.1s-47,20.1-50.2,44.1H180.9
	c-3.2-24-24.5-44.1-50.2-44.1S83.7,386,80.5,410h-3.5c-10.9,0.2-19.9-8.6-20.1-19.5c0-0.1,0-0.1,0-0.2v-25.4c0-9,6.1-17,14.8-19.4
	l69.6-19c2.1-0.6,4-1.8,5.3-3.6l41.6-54.8c5.7-7.5,14.5-12,23.9-12.1h131.3c10.4,0.1,20.1,5.5,25.5,14.4l32.3,51.7
	c1,1.7,2.5,3,4.3,3.9l37.5,17.1c7.2,3.3,11.8,10.4,11.8,18.3V390.3z"/>
</svg>
