<?xml version="1.0" encoding="utf-8"?>
<!-- Generator: Adobe Illustrator 24.3.0, SVG Export Plug-In . SVG Version: 6.00 Build 0)  -->
<svg version="1.1" id="Artboard_30" xmlns="http://www.w3.org/2000/svg" xmlns:xlink="http://www.w3.org/1999/xlink" x="0px"
	 y="0px" viewBox="0 0 512 512" style="enable-background:new 0 0 512 512;" xml:space="preserve">
<style type="text/css">
	.st0{fill:url(#SVGID_1_);}
	.st1{fill:url(#SVGID_2_);}
	.st2{fill:url(#SVGID_3_);}
</style>
<g>
	<linearGradient id="SVGID_1_" gradientUnits="userSpaceOnUse" x1="80" y1="267.3681" x2="432" y2="267.3681">
		<stop  offset="0" style="stop-color:#00EFD1"/>
		<stop  offset="1" style="stop-color:#00ACEA"/>
	</linearGradient>
	<path class="st0" d="M403.6,278.7v-34.1c0-21.9-17.8-39.7-39.7-39.7h-34.1v-34.4c0-9.9-5.1-18.9-13.7-24
		c-8.8-5.2-19.4-5.4-28.2-0.6l-9.2,4.6V132c0-11.7-6.5-22-16.9-26.7c-10-4.6-21.5-2.8-29.9,4.5l-108.6,95.2h-3.5
		c-21.9,0-39.7,17.8-39.7,39.7v147.6c0,21.9,17.8,39.7,39.7,39.7h244.1c21.9,0,39.7-17.8,39.7-39.7v-34.1
		c15.7,0,28.4-12.7,28.4-28.4v-22.7C432,291.5,419.3,278.7,403.6,278.7z M293.1,156c5.4-3,11.8-2.9,17.2,0.3c5.1,3,8.2,8.4,8.2,14.2
		v34.4H194.9L293.1,156z M239.4,118.3c5-4.4,11.7-5.4,17.7-2.7c5,2.3,10.3,7.7,10.3,16.4v24.2l-97.9,48.8h-29L239.4,118.3z
		 M392.3,392.3c0,15.7-12.7,28.4-28.4,28.4H119.7c-15.7,0-28.4-12.7-28.4-28.4V244.7c0-15.7,12.7-28.4,28.4-28.4h244.1
		c15.7,0,28.4,12.7,28.4,28.4v34.1h-56.8c-28.4,0-28.4,29.9-28.4,39.7s0,39.7,28.4,39.7h56.8V392.3z M420.6,329.8
		c0,9.4-7.6,17-17,17h-68.1c-10.2,0-17-4.8-17-28.4s6.8-28.4,17-28.4h68.1c9.4,0,17,7.6,17,17V329.8z"/>
	<linearGradient id="SVGID_2_" gradientUnits="userSpaceOnUse" x1="329.8065" y1="318.4621" x2="375.2258" y2="318.4621">
		<stop  offset="0" style="stop-color:#00EFD1"/>
		<stop  offset="1" style="stop-color:#00ACEA"/>
	</linearGradient>
	<path class="st1" d="M352.5,295.8c-12.5,0-22.7,10.2-22.7,22.7s10.2,22.7,22.7,22.7c12.5,0,22.7-10.2,22.7-22.7
		S365,295.8,352.5,295.8z M352.5,329.8c-6.3,0-11.4-5.1-11.4-11.4s5.1-11.4,11.4-11.4c6.3,0,11.4,5.1,11.4,11.4
		S358.8,329.8,352.5,329.8z"/>
	<linearGradient id="SVGID_3_" gradientUnits="userSpaceOnUse" x1="346.8369" y1="139.6517" x2="431.9124" y2="139.6517">
		<stop  offset="0" style="stop-color:#00EFD1"/>
		<stop  offset="1" style="stop-color:#00ACEA"/>
	</linearGradient>
	<path class="st2" d="M353.1,169.5l-3.5,2.1c-1.6,1-2.7,2.7-2.7,4.6c-0.1,1.9,0.7,3.7,2.3,4.8l22.7,17c1,0.8,2.2,1.1,3.4,1.1
		c1.1,0,2.2-0.3,3.2-1l1-0.7c20.7-13.8,33.7-36.2,35.4-60.8h7.5c3.9,0,7.4-2.3,8.9-6c1.4-3.5,0.7-7.4-1.7-10.2l-25.9-34.9
		c-2.7-3.6-6.8-5.7-11.3-5.7h0c-4.5,0-8.7,2.1-11.3,5.7L355,120.5c-2.5,2.8-3.2,6.8-1.8,10.3c1.5,3.7,5.1,6,9,6h7.9
		C371.1,149.9,364.6,162.6,353.1,169.5z M380.9,131.1c0-0.6-0.2-1.2-0.4-1.9l-0.1-0.3c0,0,0,0,0,0c-0.5-1.3-1.4-2.2-2.6-2.9
		c-1.1-0.6,0,0,0,0c-0.3-0.2-0.7-0.3-1-0.4c-0.6-0.2-1.2-0.2-1.8-0.3h-9.5l24.4-32.9c0.7-1,1.7-1.1,2.2-1.1s1.5,0.1,2.2,1.1
		l24.5,32.9h-9.6c-3.1,0-5.7,2.5-5.7,5.7c0,22-10.5,42.6-28.2,55.5l-12.9-9.7C376.8,166.5,384,148.7,380.9,131.1L380.9,131.1z"/>
</g>
</svg>
