<?xml version="1.0" encoding="utf-8"?>
<!-- Generator: Adobe Illustrator 24.3.0, SVG Export Plug-In . SVG Version: 6.00 Build 0)  -->
<svg version="1.1" id="Layer_1" xmlns="http://www.w3.org/2000/svg" xmlns:xlink="http://www.w3.org/1999/xlink" x="0px" y="0px"
	 viewBox="0 0 511 511" style="enable-background:new 0 0 511 511;" xml:space="preserve">
<style type="text/css">
	.st0{fill:url(#SVGID_1_);}
</style>
<linearGradient id="SVGID_1_" gradientUnits="userSpaceOnUse" x1="50.9434" y1="254.5025" x2="462" y2="254.5025">
	<stop  offset="0" style="stop-color:#00EFD1"/>
	<stop  offset="1" style="stop-color:#00ACEA"/>
</linearGradient>
<path class="st0" d="M451,227.8C450.9,227.8,450.9,227.7,451,227.8L283.2,60c-7.1-7.2-16.7-11.1-26.8-11.1
	c-10.1,0-19.6,3.9-26.8,11.1L62.1,227.6c-0.1,0.1-0.1,0.1-0.2,0.2c-14.7,14.8-14.7,38.7,0.1,53.4c6.7,6.7,15.6,10.6,25.1,11
	c0.4,0,0.8,0.1,1.2,0.1H95v123.4c0,24.4,19.9,44.3,44.3,44.3h65.6c6.7,0,12-5.4,12-12v-96.8c0-11.1,9.1-20.2,20.2-20.2h38.7
	c11.1,0,20.2,9.1,20.2,20.2V448c0,6.6,5.4,12,12,12h65.6c24.4,0,44.3-19.9,44.3-44.3V292.4h6.2c10.1,0,19.6-3.9,26.8-11.1
	C465.7,266.5,465.7,242.5,451,227.8z M433.9,264.2c-2.6,2.6-6.1,4-9.7,4h-18.2c-6.7,0-12,5.4-12,12v135.4c0,11.1-9.1,20.2-20.2,20.2
	h-53.6v-84.7c0-24.4-19.9-44.3-44.3-44.3h-38.7c-24.4,0-44.3,19.9-44.3,44.3V436h-53.6c-11.1,0-20.2-9.1-20.2-20.2V280.3
	c0-6.7-5.4-12-12-12H89.1c-0.2,0-0.4,0-0.6,0c-3.6-0.1-7-1.5-9.5-4c-5.4-5.4-5.4-14.1,0-19.5c0,0,0,0,0,0l0,0L246.7,77.1
	c2.6-2.6,6.1-4,9.7-4c3.7,0,7.1,1.4,9.7,4l167.7,167.6c0,0,0.1,0.1,0.1,0.1C439.3,250.2,439.3,258.9,433.9,264.2z"/>
</svg>
