<?xml version="1.0" encoding="utf-8"?>
<!-- Generator: Adobe Illustrator 24.3.0, SVG Export Plug-In . SVG Version: 6.00 Build 0)  -->
<svg version="1.1" id="Layer_1" xmlns="http://www.w3.org/2000/svg" xmlns:xlink="http://www.w3.org/1999/xlink" x="0px" y="0px"
	 viewBox="0 0 320 320" style="enable-background:new 0 0 320 320;" xml:space="preserve">
<style type="text/css">
	.st0{fill:url(#XMLID_2_);}
	.st1{fill:url(#XMLID_3_);}
</style>
<g id="XMLID_6_">
	<linearGradient id="XMLID_2_" gradientUnits="userSpaceOnUse" x1="35.5565" y1="160.0015" x2="222.2211" y2="160.0015">
		<stop  offset="0" style="stop-color:#00EFD1"/>
		<stop  offset="1" style="stop-color:#00ACEA"/>
	</linearGradient>
	<path id="XMLID_7_" class="st0" d="M75.4,171.7h135.2c6.4,0,11.7-5.2,11.7-11.7s-5.2-11.7-11.7-11.7H75.4l15.1-15.1
		c4.6-4.6,4.6-11.9,0-16.5c-4.6-4.6-11.9-4.6-16.5,0l-35,35c-0.3,0.3-0.5,0.6-0.8,0.9c-0.1,0.1-0.2,0.3-0.3,0.4
		c-0.1,0.2-0.3,0.3-0.4,0.5c-0.1,0.2-0.2,0.3-0.3,0.5c-0.1,0.2-0.2,0.3-0.3,0.5c-0.1,0.2-0.2,0.3-0.3,0.5c-0.1,0.2-0.2,0.3-0.2,0.5
		c-0.1,0.2-0.1,0.3-0.2,0.5c-0.1,0.2-0.1,0.4-0.2,0.6c-0.1,0.2-0.1,0.3-0.1,0.5c0,0.2-0.1,0.4-0.1,0.6c0,0.2-0.1,0.4-0.1,0.6
		c0,0.2-0.1,0.3-0.1,0.5c0,0.4-0.1,0.8-0.1,1.1c0,0,0,0,0,0s0,0,0,0c0,0.4,0,0.8,0.1,1.1c0,0.2,0,0.3,0.1,0.5c0,0.2,0.1,0.4,0.1,0.6
		c0,0.2,0.1,0.4,0.1,0.6c0,0.2,0.1,0.4,0.1,0.5c0.1,0.2,0.1,0.4,0.2,0.6c0.1,0.2,0.1,0.4,0.2,0.5c0.1,0.2,0.2,0.3,0.2,0.5
		c0.1,0.2,0.2,0.4,0.3,0.5c0.1,0.2,0.2,0.3,0.3,0.5c0.1,0.2,0.2,0.3,0.3,0.5c0.1,0.2,0.2,0.3,0.4,0.5c0.1,0.1,0.2,0.3,0.3,0.4
		c0.2,0.3,0.5,0.6,0.7,0.8c0,0,0,0,0,0l35,35c2.3,2.3,5.3,3.4,8.2,3.4c3,0,6-1.1,8.2-3.4c4.6-4.6,4.6-11.9,0-16.5L75.4,171.7z"/>
	<linearGradient id="XMLID_3_" gradientUnits="userSpaceOnUse" x1="113.3352" y1="160.0005" x2="284.4465" y2="160.0005">
		<stop  offset="0" style="stop-color:#00EFD1"/>
		<stop  offset="1" style="stop-color:#00ACEA"/>
	</linearGradient>
	<path id="XMLID_8_" class="st1" d="M272.8,55H125c-6.4,0-11.7,5.2-11.7,11.7v46.7c0,6.4,5.2,11.7,11.7,11.7s11.7-5.2,11.7-11.7v-35
		h124.4v163.3H136.7v-35c0-6.4-5.2-11.7-11.7-11.7s-11.7,5.2-11.7,11.7v46.7c0,6.4,5.2,11.7,11.7,11.7h147.8
		c6.4,0,11.7-5.2,11.7-11.7V66.7C284.4,60.2,279.2,55,272.8,55z"/>
</g>
</svg>
