<?xml version="1.0" encoding="utf-8"?>
<!-- Generator: Adobe Illustrator 24.3.0, SVG Export Plug-In . SVG Version: 6.00 Build 0)  -->
<svg version="1.1" id="Layer_1" xmlns="http://www.w3.org/2000/svg" xmlns:xlink="http://www.w3.org/1999/xlink" x="0px" y="0px"
	 viewBox="0 0 512 512" style="enable-background:new 0 0 512 512;" xml:space="preserve">
<style type="text/css">
	.st0{fill:url(#SVGID_1_);}
	.st1{fill:url(#SVGID_2_);}
	.st2{fill:url(#SVGID_3_);}
</style>
<linearGradient id="SVGID_1_" gradientUnits="userSpaceOnUse" x1="49" y1="256.7988" x2="463" y2="256.7988">
	<stop  offset="0" style="stop-color:#00EFD1"/>
	<stop  offset="1" style="stop-color:#00ACEA"/>
</linearGradient>
<path class="st0" d="M378.1,86.3H133.9c-46.8,0-84.9,38.1-84.9,84.9v131.1c0,37.4,24.5,69.9,60.1,80.3l41,41
	c2.3,2.3,5.4,3.6,8.6,3.6c3.2,0,6.3-1.3,8.6-3.6l37.6-37.6h173.3c46.8,0,84.9-38.1,84.9-84.9V171.3C463,124.4,424.9,86.3,378.1,86.3
	z M438.7,301.2c0,33.4-27.2,60.6-60.6,60.6H199.8c-3.2,0-6.3,1.3-8.6,3.6L158.6,398l-34.7-34.7c-1.6-1.6-3.5-2.7-5.6-3.2
	c-26.5-6.6-45-30.3-45-57.7V171.3c0-33.4,27.2-60.6,60.6-60.6h244.2c33.4,0,60.6,27.2,60.6,60.6V301.2z"/>
<linearGradient id="SVGID_2_" gradientUnits="userSpaceOnUse" x1="145.7578" y1="204.8281" x2="366.2422" y2="204.8281">
	<stop  offset="0" style="stop-color:#00EFD1"/>
	<stop  offset="1" style="stop-color:#00ACEA"/>
</linearGradient>
<path class="st1" d="M351.2,189.8H160.8c-8.3,0-15,6.7-15,15c0,8.3,6.7,15,15,15h190.5c8.3,0,15-6.7,15-15
	C366.2,196.5,359.5,189.8,351.2,189.8z"/>
<linearGradient id="SVGID_3_" gradientUnits="userSpaceOnUse" x1="145.7578" y1="257.8516" x2="366.2422" y2="257.8516">
	<stop  offset="0" style="stop-color:#00EFD1"/>
	<stop  offset="1" style="stop-color:#00ACEA"/>
</linearGradient>
<path class="st2" d="M351.2,242.9H160.8c-8.3,0-15,6.7-15,15s6.7,15,15,15h190.5c8.3,0,15-6.7,15-15S359.5,242.9,351.2,242.9z"/>
</svg>
