<?xml version="1.0" encoding="utf-8"?>
<!-- Generator: Adobe Illustrator 24.3.0, SVG Export Plug-In . SVG Version: 6.00 Build 0)  -->
<svg version="1.1" id="Capa_1" xmlns="http://www.w3.org/2000/svg" xmlns:xlink="http://www.w3.org/1999/xlink" x="0px" y="0px"
	 viewBox="0 0 512 512" style="enable-background:new 0 0 512 512;" xml:space="preserve">
<style type="text/css">
	.st0{fill:url(#SVGID_1_);}
	.st1{fill:url(#SVGID_2_);}
	.st2{fill:url(#SVGID_3_);}
	.st3{fill:url(#SVGID_4_);}
	.st4{fill:url(#SVGID_5_);}
</style>
<g>
	<g>
		<g>
			<linearGradient id="SVGID_1_" gradientUnits="userSpaceOnUse" x1="167.1717" y1="256" x2="344.8283" y2="256">
				<stop  offset="0" style="stop-color:#00EFD1"/>
				<stop  offset="1" style="stop-color:#00ACEA"/>
			</linearGradient>
			<path class="st0" d="M167.2,256c0,9.8,8,17.8,17.8,17.8h53.3v53.3c0,9.8,8,17.8,17.8,17.8s17.8-8,17.8-17.8v-53.3h53.3
				c9.8,0,17.8-8,17.8-17.8s-8-17.8-17.8-17.8h-53.3v-53.3c0-9.8-8-17.8-17.8-17.8c-9.8,0-17.8,8-17.8,17.8v53.3h-53.3
				C175.1,238.2,167.2,246.2,167.2,256z"/>
			<linearGradient id="SVGID_2_" gradientUnits="userSpaceOnUse" x1="146.5155" y1="62.322" x2="205.0357" y2="62.322">
				<stop  offset="0" style="stop-color:#00EFD1"/>
				<stop  offset="1" style="stop-color:#00ACEA"/>
			</linearGradient>
			<path class="st1" d="M171.1,83.5l23-9.5c9.1-3.8,13.4-14.1,9.6-23.2s-14.1-13.4-23.2-9.6l-23,9.5c-9.1,3.8-13.4,14.1-9.6,23.2
				C151.6,82.9,162,87.3,171.1,83.5z"/>
			<linearGradient id="SVGID_3_" gradientUnits="userSpaceOnUse" x1="28.5995" y1="256" x2="483.4005" y2="256">
				<stop  offset="0" style="stop-color:#00EFD1"/>
				<stop  offset="1" style="stop-color:#00ACEA"/>
			</linearGradient>
			<path class="st2" d="M256,28.6c-9.8,0-17.8,8-17.8,17.8s8,17.8,17.8,17.8c106,0,191.9,85.8,191.9,191.9
				c0,106-85.8,191.9-191.9,191.9c-106,0-191.9-85.8-191.9-191.9c0-9.8-8-17.8-17.8-17.8s-17.8,8-17.8,17.8
				c0,125.7,101.7,227.4,227.4,227.4c125.7,0,227.4-101.7,227.4-227.4C483.4,130.3,381.7,28.6,256,28.6z"/>
			<linearGradient id="SVGID_4_" gradientUnits="userSpaceOnUse" x1="81.2061" y1="107.7658" x2="134.3259" y2="107.7658">
				<stop  offset="0" style="stop-color:#00EFD1"/>
				<stop  offset="1" style="stop-color:#00ACEA"/>
			</linearGradient>
			<path class="st3" d="M111.5,129.1l17.6-17.6c6.9-6.9,6.9-18.2,0-25.1c-6.9-6.9-18.2-6.9-25.1,0L86.4,104
				c-6.9,6.9-6.9,18.2,0,25.1C93.3,136.1,104.6,136.1,111.5,129.1z"/>
			<linearGradient id="SVGID_5_" gradientUnits="userSpaceOnUse" x1="39.7927" y1="175.7763" x2="84.8528" y2="175.7763">
				<stop  offset="0" style="stop-color:#00EFD1"/>
				<stop  offset="1" style="stop-color:#00ACEA"/>
			</linearGradient>
			<path class="st4" d="M50.8,203.7c9.1,3.8,19.5-0.6,23.2-9.6l9.5-23c3.8-9.1-0.5-19.5-9.6-23.2c-9.1-3.8-19.5,0.5-23.2,9.6
				l-9.5,23C37.4,189.5,41.7,199.9,50.8,203.7z"/>
		</g>
	</g>
</g>
</svg>
