<?xml version="1.0" encoding="utf-8"?>
<!-- Generator: Adobe Illustrator 24.3.0, SVG Export Plug-In . SVG Version: 6.00 Build 0)  -->
<svg version="1.1" id="Layer_1" xmlns="http://www.w3.org/2000/svg" xmlns:xlink="http://www.w3.org/1999/xlink" x="0px" y="0px"
	 viewBox="0 0 480 480" style="enable-background:new 0 0 480 480;" xml:space="preserve">
<style type="text/css">
	.st0{fill:url(#SVGID_1_);}
	.st1{fill:url(#SVGID_2_);}
	.st2{fill:url(#SVGID_3_);}
</style>
<linearGradient id="SVGID_1_" gradientUnits="userSpaceOnUse" x1="54.0071" y1="295.7977" x2="178.0019" y2="295.7977">
	<stop  offset="0" style="stop-color:#00EFD1"/>
	<stop  offset="1" style="stop-color:#00ACEA"/>
</linearGradient>
<path class="st0" d="M116,233.8c-34.2,0-62,27.8-62,62c0,34.2,27.8,62,62,62s62-27.8,62-62C178,261.6,150.2,233.8,116,233.8z
	 M116,345.4c-27.4,0-49.6-22.2-49.6-49.6c0-27.4,22.2-49.6,49.6-49.6s49.6,22.2,49.6,49.6C165.6,323.2,143.4,345.4,116,345.4z"/>
<linearGradient id="SVGID_2_" gradientUnits="userSpaceOnUse" x1="91.2055" y1="295.7977" x2="140.8035" y2="295.7977">
	<stop  offset="0" style="stop-color:#00EFD1"/>
	<stop  offset="1" style="stop-color:#00ACEA"/>
</linearGradient>
<path class="st1" d="M116,271c-13.7,0-24.8,11.1-24.8,24.8c0,13.7,11.1,24.8,24.8,24.8s24.8-11.1,24.8-24.8
	C140.8,282.1,129.7,271,116,271z M116,308.2c-6.8,0-12.4-5.5-12.4-12.4c0-6.8,5.6-12.4,12.4-12.4s12.4,5.6,12.4,12.4
	C128.4,302.6,122.9,308.2,116,308.2z"/>
<linearGradient id="SVGID_3_" gradientUnits="userSpaceOnUse" x1="60.2044" y1="239.8815" x2="426" y2="239.8815">
	<stop  offset="0" style="stop-color:#00EFD1"/>
	<stop  offset="1" style="stop-color:#00ACEA"/>
</linearGradient>
<path class="st2" d="M364,233.8c-7.3,0-14.5,1.3-21.3,3.8l-5.4-11.2c7.8-3,15.9-4.7,24.3-5c0.6,0,1.2-0.1,1.7-0.1
	c12.3-0.1,24.5,2.8,35.3,8.5c3,1.6,6.7,0.4,8.3-2.6c1.6-3,0.4-6.7-2.6-8.3c-12.4-6.5-26.1-9.9-40.1-9.9c-0.1,0-0.2-0.1-0.3-0.1
	c-0.2,0-0.4,0-0.6,0c-1.1,0-2.2,0.1-3.3,0.2c-9.6,0.4-19.2,2.5-28.1,6l-10.1-21.1c5.6,1.7,11.5,2.5,17.4,2.5c3.4,0,6.2-2.8,6.2-6.2
	v-49.6c0-3.4-2.8-6.2-6.2-6.2c-14.5-0.7-28.6,5.2-38.2,16.1l-12-25c-1-2.1-3.2-3.5-5.6-3.5h-37.2c-3.4,0-6.2,2.8-6.2,6.2
	c0,3.4,2.8,6.2,6.2,6.2h33.3l8.9,18.6h-50.6c-16.6,0-31.6,10-38,25.3c-1-0.3-2.1-0.5-3.2-0.5H97.4c-13.7,0-24.8,11.1-24.8,24.8
	c0,6.5,5.1,11.9,11.6,12.3c-7.7,3-15,7.2-21.6,12.3c-2.7,2.1-3.2,6-1.1,8.7c2.1,2.7,6,3.2,8.7,1.1c22.4-17.5,52.8-20.7,78.4-8.2
	c25.6,12.5,41.8,38.4,41.8,66.9v8.2c-0.7,4.7,0.5,9.6,3.4,13.3c2.4,2.3,5.6,3.5,9,3.3H271c5,0.1,9.8-1.8,13.3-5.3
	c3.5-3.5,5.4-8.3,5.3-13.3v-6.2c0-12.3,3-24.4,8.9-35.2c0.4-0.8,0.9-1.5,1.3-2.2c5.5-9.4,12.9-17.4,21.8-23.6
	c0.3-0.2,0.6-0.5,0.9-0.7c0.7-0.5,1.5-0.9,2.2-1.4c0.5-0.3,1-0.6,1.5-0.9l5.4,11.2c-26.3,16.3-36.5,49.4-24,77.6
	c12.5,28.2,43.9,43,73.6,34.5c29.7-8.5,48.6-37.6,44.3-68.1C421.1,256.5,394.9,233.7,364,233.8z M308.2,165.6
	c0-8.8,10.8-16.4,24.8-18.2v36.4c-7.5-0.7-14.7-3.8-20.4-8.8l-4.4-9.2C308.2,165.7,308.2,165.7,308.2,165.6z M237.8,165.6H292
	l18.6,37.2h-93.2c-4.6,0-8.4-3.8-8.4-8.4C209,178.5,221.9,165.6,237.8,165.6z M97.4,190.4h99.2v12.4H85
	C85,196,90.6,190.4,97.4,190.4z M277.2,302c0.1,1.7-0.5,3.3-1.7,4.5c-1.2,1.2-2.8,1.8-4.5,1.7h-68.1c-0.1-1.1-0.1-2.8-0.1-4.1l0-8.3
	c0.1-35.5-21.6-67.5-54.7-80.6h48.5c3.4,0,6.6-1.4,8.9-3.8c3.5,2.5,7.6,3.8,11.9,3.8h100.8l2.6,5.4c-0.5,0.3-1.1,0.7-1.6,1
	c-1.2,0.7-2.5,1.4-3.7,2.2l-0.1,0.1c-1.9,1.2-3.7,2.6-5.4,4c-0.6-0.2-1.2-0.3-1.7-0.4h-80.6c-5,0-9.8,2-13.3,5.6
	c-3.5,3.6-5.4,8.4-5.3,13.4v5.3c-0.1,5,1.8,9.9,5.3,13.4c3.5,3.6,8.3,5.6,13.3,5.6h53.3c-1.2,4.1-2.1,8.2-2.7,12.4H240
	c-3.4,0-6.2,2.8-6.2,6.2c0,3.4,2.8,6.2,6.2,6.2h37.2V302z M287.5,254.8c-0.1,0.2-0.2,0.4-0.3,0.6c-0.1,0.1,0,0.2-0.1,0.3
	c-0.5,1-0.9,1.9-1.4,2.9h-58.1c-1.7,0-3.4-0.7-4.5-2c-1.2-1.3-1.8-2.9-1.7-4.7v-5.3c-0.1-1.7,0.5-3.4,1.7-4.7c1.2-1.3,2.8-2,4.5-2
	h70c-3.1,3.8-6,7.8-8.4,12.1C288.6,253,288,253.9,287.5,254.8z M364,345.4c-22,0-41.3-14.4-47.6-35.5c-6.3-21.1,2.1-43.7,20.5-55.7
	l10.9,22.8c-9.1,8-10.7,21.6-3.9,31.6c6.8,10,20,13.4,30.8,8c10.8-5.5,15.9-18.1,11.9-29.5S370.8,269,359,271.5l-10.9-22.7
	c18.6-6.3,39.2-1.1,52.5,13.5c13.3,14.5,16.8,35.5,8.8,53.5C401.5,333.8,383.7,345.4,364,345.4z M364,283.4
	c6.8,0,12.4,5.6,12.4,12.4c0,6.9-5.6,12.4-12.4,12.4s-12.4-5.5-12.4-12.4c0-2.7,0.9-5.3,2.6-7.4c1.1,0.8,2.3,1.2,3.6,1.2
	c1.6,0,3.2-0.7,4.4-1.8C363.3,286.6,364,285,364,283.4L364,283.4z"/>
</svg>
