<?xml version="1.0" encoding="utf-8"?>
<!-- Generator: Adobe Illustrator 24.3.0, SVG Export Plug-In . SVG Version: 6.00 Build 0)  -->
<svg version="1.1" id="Layer_1" xmlns="http://www.w3.org/2000/svg" xmlns:xlink="http://www.w3.org/1999/xlink" x="0px" y="0px"
	 viewBox="0 0 512 512" style="enable-background:new 0 0 512 512;" xml:space="preserve">
<style type="text/css">
	.st0{fill:url(#SVGID_1_);}
	.st1{fill:url(#SVGID_2_);}
</style>
<linearGradient id="SVGID_1_" gradientUnits="userSpaceOnUse" x1="48" y1="256" x2="464" y2="256">
	<stop  offset="0" style="stop-color:#00EFD1"/>
	<stop  offset="1" style="stop-color:#00ACEA"/>
</linearGradient>
<path class="st0" d="M455.9,447.8h-13V223.5c0-4.5-3.6-8.1-8.1-8.1H386c-4.5,0-8.1,3.6-8.1,8.1v48.8c0,4.5,3.6,8.1,8.1,8.1
	s8.1-3.6,8.1-8.1v-40.6h32.5v216.1h-32.5V337.2c0-4.5-3.6-8.1-8.1-8.1s-8.1,3.6-8.1,8.1v110.5h-32.5V288.5c0-4.5-3.6-8.1-8.1-8.1
	h-48.8c-4.5,0-8.1,3.6-8.1,8.1v159.2h-32.5V337.2c0-4.5-3.6-8.1-8.1-8.1H191c-4.5,0-8.1,3.6-8.1,8.1v110.5h-32.5v-78
	c0-4.5-3.6-8.1-8.1-8.1H93.5c-4.5,0-8.1,3.6-8.1,8.1v78H64.2V56.1c0-4.5-3.6-8.1-8.1-8.1S48,51.6,48,56.1v399.8
	c0,4.5,3.6,8.1,8.1,8.1h399.8c4.5,0,8.1-3.6,8.1-8.1S460.4,447.8,455.9,447.8z M134.1,447.8h-32.5v-69.9h32.5V447.8z M231.6,447.8
	h-32.5V345.4h32.5V447.8z M329.1,447.8h-32.5V296.6h32.5V447.8z"/>
<linearGradient id="SVGID_2_" gradientUnits="userSpaceOnUse" x1="117.8746" y1="205.2193" x2="412.1705" y2="205.2193">
	<stop  offset="0" style="stop-color:#00EFD1"/>
	<stop  offset="1" style="stop-color:#00ACEA"/>
</linearGradient>
<path class="st1" d="M124.3,304.6c-4.4,0.9-7.2,5.2-6.3,9.6c0.9,4.4,5.2,7.2,9.6,6.3C233,298.1,321.9,234.6,377.9,149l13.5,9.4
	c4.9,3.5,11.8,0.5,12.7-5.5l8-53.9c0.5-3-0.9-6.1-3.4-7.8c-2.5-1.8-5.8-2-8.5-0.5l-47.9,25.9c-5.3,2.9-5.7,10.3-0.8,13.8l13.1,9.2
	C309.5,223.9,222.4,283.8,124.3,304.6z M393.6,112.8l-3.7,24.8l-18.4-12.9L393.6,112.8z"/>
</svg>
