<?xml version="1.0" encoding="utf-8"?>
<!-- Generator: Adobe Illustrator 24.3.0, SVG Export Plug-In . SVG Version: 6.00 Build 0)  -->
<svg version="1.1" id="Layer_1" xmlns="http://www.w3.org/2000/svg" xmlns:xlink="http://www.w3.org/1999/xlink" x="0px" y="0px"
	 viewBox="0 0 330 330" style="enable-background:new 0 0 330 330;" xml:space="preserve">
<style type="text/css">
	.st0{fill:url(#XMLID_2_);}
</style>
<linearGradient id="XMLID_2_" gradientUnits="userSpaceOnUse" x1="40.0004" y1="164.9997" x2="290" y2="164.9997">
	<stop  offset="0" style="stop-color:#00EFD1"/>
	<stop  offset="1" style="stop-color:#00ACEA"/>
</linearGradient>
<path id="XMLID_15_" class="st0" d="M286.7,157.1l-28.4-27.9c-3.2-3.2-8.1-4.1-12.4-2.4c-4.2,1.7-7,5.8-7,10.3v16.7H51.4
	c-6.3,0-11.4,5-11.4,11.1s5.1,11.1,11.4,11.1h187.5v16.7c0,4.5,2.8,8.6,7,10.3c1.4,0.6,2.9,0.8,4.3,0.8c3,0,5.9-1.1,8-3.3l28.4-27.9
	C291.1,168.5,291.1,161.5,286.7,157.1z"/>
</svg>
