<?xml version="1.0" encoding="utf-8"?>
<!-- Generator: Adobe Illustrator 24.3.0, SVG Export Plug-In . SVG Version: 6.00 Build 0)  -->
<svg version="1.1" id="Capa_1" xmlns="http://www.w3.org/2000/svg" xmlns:xlink="http://www.w3.org/1999/xlink" x="0px" y="0px"
	 viewBox="0 0 512 512" style="enable-background:new 0 0 512 512;" xml:space="preserve">
<style type="text/css">
	.st0{fill:url(#SVGID_1_);}
</style>
<g>
	<linearGradient id="SVGID_1_" gradientUnits="userSpaceOnUse" x1="74.0015" y1="256.0001" x2="438" y2="256.0001">
		<stop  offset="0" style="stop-color:#00EFD1"/>
		<stop  offset="1" style="stop-color:#00ACEA"/>
	</linearGradient>
	<path class="st0" d="M437.8,110.7c1.8-8.3-6.3-15.2-14.2-12.2L80.9,229.3c-4.1,1.6-6.9,5.5-6.9,9.9c0,4.4,2.7,8.4,6.8,10l96.3,37.2
		v117.1c0,4.9,3.4,9.2,8.2,10.4c4.8,1.1,9.8-1.1,12-5.6l39.8-79l97.2,72.1c5.9,4.4,14.4,1.6,16.6-5.5
		C441.5,98.6,437.6,111.5,437.8,110.7L437.8,110.7z M353.2,148.2L186.2,267.1l-71.8-27.7L353.2,148.2z M198.4,284.6L343.9,181
		C218.7,313.1,225.3,306.1,224.7,306.9c-0.8,1.1,1.4-3.2-26.3,51.8V284.6z M334.8,375.3l-85.5-63.5l154.6-163.1L334.8,375.3z"/>
</g>
</svg>
