<?xml version="1.0" encoding="utf-8"?>
<!-- Generator: Adobe Illustrator 24.3.0, SVG Export Plug-In . SVG Version: 6.00 Build 0)  -->
<svg version="1.1" id="Capa_1" xmlns="http://www.w3.org/2000/svg" xmlns:xlink="http://www.w3.org/1999/xlink" x="0px" y="0px"
	 viewBox="0 0 480 480" style="enable-background:new 0 0 480 480;" xml:space="preserve">
<style type="text/css">
	.st0{fill:url(#SVGID_1_);}
	.st1{fill:url(#SVGID_2_);}
	.st2{fill:url(#SVGID_3_);}
	.st3{fill:url(#SVGID_4_);}
</style>
<g>
	<g>
		<linearGradient id="SVGID_1_" gradientUnits="userSpaceOnUse" x1="45" y1="305" x2="305" y2="305">
			<stop  offset="0" style="stop-color:#00EFD1"/>
			<stop  offset="1" style="stop-color:#00ACEA"/>
		</linearGradient>
		<path class="st0" d="M285.5,272.5h-7.1c-2.7,0-5.1-1.7-6-4.2c-0.8-2.1-1.6-4.1-2.6-6.1c-1.1-2.5-0.6-5.4,1.3-7.3l5.1-5.1
			c7.6-7.6,7.6-19.9,0-27.6l-18.4-18.4c-7.6-7.6-19.9-7.6-27.6,0l-5.1,5.1c-1.9,1.9-4.8,2.4-7.3,1.3c-2-0.9-4-1.8-6.1-2.6
			c-2.5-0.9-4.2-3.3-4.2-6v-7.1c0-10.8-8.7-19.5-19.5-19.5h-26c-10.8,0-19.5,8.7-19.5,19.5v7.2c0,2.7-1.7,5.1-4.2,6
			c-2.1,0.8-4.1,1.6-6.1,2.6c-2.5,1.1-5.3,0.6-7.3-1.3l-5.1-5.1c-7.6-7.6-19.9-7.6-27.6,0l-18.4,18.4c-7.6,7.6-7.6,19.9,0,27.6
			l5.1,5.1c1.9,1.9,2.4,4.8,1.3,7.3c-0.9,2-1.8,4-2.6,6.1c-0.9,2.5-3.4,4.2-6.1,4.2h-7.2c-10.8,0-19.5,8.7-19.5,19.5v26
			c0,10.8,8.7,19.5,19.5,19.5h7.2c2.7,0,5.1,1.7,6,4.2c0.8,2.1,1.6,4.1,2.6,6.1c1.1,2.5,0.6,5.4-1.3,7.3l-5.1,5.1
			c-7.6,7.6-7.6,19.9,0,27.6l18.4,18.4c7.6,7.6,19.9,7.6,27.6,0l5.1-5.1c1.9-1.9,4.8-2.4,7.3-1.3c2,0.9,4,1.8,6.1,2.6
			c2.6,0.9,4.3,3.3,4.3,6v7.1c0,10.8,8.7,19.5,19.5,19.5h26c10.8,0,19.5-8.7,19.5-19.5v-7.1c0-2.7,1.7-5.1,4.2-6
			c2.1-0.8,4.1-1.6,6.1-2.6c2.5-1.1,5.3-0.6,7.3,1.3l5.1,5.1c7.6,7.6,19.9,7.5,27.6,0l18.4-18.4c7.6-7.6,7.6-19.9,0-27.6l-5.1-5.1
			c-1.9-1.9-2.4-4.8-1.3-7.3c0.9-2,1.8-4,2.6-6.1c0.9-2.5,3.3-4.2,6-4.2h7.1c10.8,0,19.5-8.7,19.5-19.5v-26
			C305,281.2,296.3,272.5,285.5,272.5z M292,318c0,3.6-2.9,6.5-6.5,6.5h-7.1c-8.1,0-15.3,5-18.2,12.6c-0.7,1.8-1.4,3.6-2.2,5.4
			c-3.3,7.4-1.8,16.1,3.9,21.8l5.1,5.1c2.5,2.5,2.5,6.7,0,9.2c0,0,0,0,0,0l-18.4,18.4c-2.5,2.5-6.7,2.5-9.2,0l-5.1-5.1
			c-5.8-5.7-14.4-7.2-21.8-3.9c-1.8,0.8-3.6,1.5-5.4,2.2c-7.5,2.9-12.5,10.1-12.6,18.2v7.1c0,3.6-2.9,6.5-6.5,6.5h-26
			c-3.6,0-6.5-2.9-6.5-6.5v-7.1c0-8.1-5-15.3-12.6-18.2c-1.8-0.7-3.6-1.4-5.4-2.2c-7.4-3.3-16.1-1.8-21.8,3.9l-5.1,5.1
			c-2.5,2.5-6.7,2.5-9.2,0c0,0,0,0,0,0l-18.4-18.3c-2.5-2.5-2.5-6.7,0-9.2l5.1-5.1c5.7-5.8,7.2-14.4,3.9-21.8
			c-0.8-1.8-1.5-3.6-2.2-5.4c-2.9-7.5-10.1-12.5-18.2-12.6h-7.2c-3.6,0-6.5-2.9-6.5-6.5v-26c0-3.6,2.9-6.5,6.5-6.5h7.2
			c8.1,0,15.3-5,18.2-12.6c0.7-1.8,1.4-3.6,2.2-5.4c3.3-7.4,1.8-16.1-3.9-21.8l-5.1-5.1c-2.5-2.5-2.5-6.7,0-9.2c0,0,0,0,0,0
			l18.4-18.4c2.5-2.5,6.7-2.5,9.2,0l5.1,5.1c5.8,5.7,14.4,7.2,21.8,3.9c1.8-0.8,3.6-1.5,5.4-2.2c7.6-2.9,12.6-10.1,12.6-18.2v-7.2
			c0-3.6,2.9-6.5,6.5-6.5h26c3.6,0,6.5,2.9,6.5,6.5v7.2c0,8.1,5,15.3,12.6,18.2c1.8,0.7,3.6,1.4,5.4,2.2c7.4,3.3,16.1,1.8,21.8-3.9
			l5.1-5.1c2.5-2.5,6.6-2.5,9.2,0l18.4,18.4c2.5,2.5,2.5,6.7,0,9.2l-5.1,5.1c-5.7,5.8-7.2,14.4-3.9,21.8c0.8,1.8,1.5,3.6,2.2,5.4
			c2.9,7.5,10.1,12.5,18.2,12.6h7.1c3.6,0,6.5,2.9,6.5,6.5L292,318L292,318z"/>
	</g>
</g>
<g>
	<g>
		<linearGradient id="SVGID_2_" gradientUnits="userSpaceOnUse" x1="116.4663" y1="305.0195" x2="233.4938" y2="305.0195">
			<stop  offset="0" style="stop-color:#00EFD1"/>
			<stop  offset="1" style="stop-color:#00ACEA"/>
		</linearGradient>
		<path class="st1" d="M233.4,302.4c-0.1-1.6-0.2-3.1-0.4-4.7c-0.2-1.7-0.5-3.3-0.8-4.9c-0.2-1.1-0.5-2.1-0.8-3.2
			c-0.4-1.3-0.8-2.7-1.2-4c-0.3-0.9-0.7-1.8-1-2.7c-0.8-2.1-1.8-4.1-2.9-6.1c-0.1-0.1-0.1-0.3-0.2-0.5c-1.7-3-3.6-5.9-5.8-8.5
			c-0.2-0.2-0.4-0.5-0.6-0.7c-0.9-1.1-1.8-2.1-2.8-3.1c-0.5-0.5-1-1-1.6-1.5c-0.7-0.6-1.3-1.2-1.9-1.8c-0.8-0.7-1.6-1.3-2.4-2
			l-1.1-0.8c-10.1-7.5-22.3-11.6-34.9-11.6c-0.7,0-1.3,0.1-1.9,0.1c-1.4,0-2.8,0.1-4.2,0.3c-0.7,0.1-1.5,0.2-2.2,0.3
			c-2.1,0.3-4.2,0.7-6.3,1.2c-31.3,8.1-50.1,40-42,71.3c5.3,20.6,21.4,36.7,42.1,42c0.1,0,0.2,0,0.3,0.1c2.2,0.6,4.5,1,6.8,1.3
			c1.5,0.2,3,0.2,4.6,0.3c1,0.1,1.9,0.2,3,0.2c1.9,0,3.8-0.1,5.7-0.3c0.2,0,0.4-0.1,0.7-0.1c1.6-0.2,3.2-0.4,4.8-0.7
			c0.7-0.1,1.3-0.3,1.9-0.4c1.1-0.3,2.3-0.5,3.5-0.9c0.9-0.3,1.8-0.6,2.7-0.9c0.9-0.3,1.8-0.6,2.7-1c0.9-0.4,1.7-0.8,2.5-1.1
			c1.1-0.5,2.2-1,3.2-1.6h0c6.1-3.2,11.7-7.3,16.7-12c1.3-1.3,2.5-2.7,3.5-4.3c5.1-8.1,8.4-17.2,9.8-26.7c0.2-1.3,0.3-2.5,0.4-3.8
			c0.1-1.2,0.2-2.3,0.2-3.5c0-0.4,0.1-0.7,0.1-1.1C233.5,304.1,233.4,303.3,233.4,302.4z M220.4,306.7c0,0.5,0,1.1-0.1,1.6
			c-0.1,1.6-0.3,3.1-0.6,4.7c-2.4,13.5-10.8,25.2-22.8,31.9c-0.8,0.4-1.6,0.8-2.4,1.2l-0.5,0.3c-3.8,1.7-7.8,2.9-11.9,3.6
			c-0.3,0-0.6,0.1-0.9,0.1c-0.8,0.1-1.6,0.2-2.4,0.3c-1,0.1-2.1,0.1-3.2,0.2c-0.5,0-0.9,0-1.4,0c-1.5,0-3.1-0.1-4.6-0.3l-0.8-0.1
			c-1.8-0.2-3.6-0.6-5.3-1c-24.3-6.2-39-31-32.8-55.4c4.1-16.1,16.7-28.7,32.8-32.8v0c3.7-0.9,7.6-1.4,11.4-1.4
			c1.9,0,3.7,0.1,5.6,0.4c0.5,0.1,1,0.1,1.5,0.2c1.4,0.2,2.8,0.5,4.2,0.9c0.4,0.1,0.9,0.2,1.3,0.3c3.5,1,6.8,2.4,9.9,4.2
			c0.5,0.3,1,0.6,1.5,0.9c1,0.6,2,1.3,3,2c0.5,0.4,1.1,0.8,1.6,1.2c1.3,1,2.5,2.1,3.7,3.2c0.5,0.5,0.9,1,1.3,1.5
			c0.7,0.8,1.5,1.6,2.2,2.5c0.5,0.6,0.9,1.2,1.4,1.9c0.7,0.9,1.3,1.9,1.9,2.9c0.3,0.5,0.7,1.1,1,1.6c0.8,1.5,1.6,3.1,2.2,4.8
			c0.3,0.6,0.5,1.3,0.7,2c0.4,1.2,0.8,2.4,1.1,3.6c0.2,0.6,0.3,1.2,0.5,1.9c0.4,1.8,0.7,3.5,0.8,5.3c0,0.5,0,1,0.1,1.4
			C220.4,303.6,220.5,305.1,220.4,306.7z"/>
	</g>
</g>
<g>
	<g>
		<linearGradient id="SVGID_3_" gradientUnits="userSpaceOnUse" x1="115.8998" y1="204.5551" x2="435" y2="204.5551">
			<stop  offset="0" style="stop-color:#00EFD1"/>
			<stop  offset="1" style="stop-color:#00ACEA"/>
		</linearGradient>
		<path class="st2" d="M415.5,181.5h-20.4c-2.7,0-5.2-1.7-6.1-4.3c-2-6-4.5-11.9-7.3-17.6c-1.2-2.5-0.7-5.4,1.2-7.3l14.5-14.5
			c7.6-7.6,7.6-20,0-27.6l-27.6-27.6c-7.6-7.6-20-7.6-27.6,0l-14.5,14.5c-1.9,2-4.9,2.5-7.3,1.3c-5.7-2.9-11.6-5.3-17.6-7.3
			c-2.6-0.9-4.3-3.3-4.3-6.1V64.5c0-10.8-8.7-19.5-19.5-19.5h-39c-10.8,0-19.5,8.7-19.5,19.5v20.4c0,2.7-1.7,5.2-4.3,6.1
			c-6,2-11.9,4.5-17.6,7.3c-2.5,1.2-5.4,0.7-7.3-1.2l-14.5-14.5c-7.6-7.6-19.9-7.6-27.6,0l-27.6,27.6c-7.6,7.6-7.6,20,0,27.6
			l21.3,21.4c2.6,2.5,6.7,2.4,9.2-0.1c2.4-2.5,2.4-6.5,0-9l-21.3-21.3c-2.5-2.5-2.5-6.7,0-9.2l27.6-27.6c2.5-2.5,6.7-2.5,9.2,0
			l14.5,14.5c5.9,5.9,14.9,7.4,22.3,3.7c5.1-2.6,10.5-4.8,15.9-6.6c7.9-2.7,13.2-10.1,13.1-18.4V64.5c0-3.6,2.9-6.5,6.5-6.5h39
			c3.6,0,6.5,2.9,6.5,6.5v20.4c0,8.3,5.3,15.7,13.1,18.4c5.5,1.8,10.8,4,15.9,6.6c7.5,3.7,16.4,2.2,22.3-3.7l14.5-14.5
			c2.5-2.5,6.7-2.5,9.2,0l27.6,27.6c2.5,2.5,2.5,6.6,0,9.2l-14.5,14.5c-5.9,5.9-7.4,14.9-3.7,22.3c2.6,5.1,4.8,10.5,6.6,15.9
			c2.7,7.9,10.1,13.2,18.4,13.1h20.4c3.6,0,6.5,2.9,6.5,6.5v39c0,3.6-2.9,6.5-6.5,6.5h-20.4c-8.3,0-15.7,5.3-18.4,13.1
			c-1.8,5.5-4,10.8-6.6,15.9c-3.7,7.5-2.2,16.5,3.7,22.3l14.5,14.5c2.5,2.5,2.5,6.7,0,9.2l-27.6,27.6c-2.5,2.5-6.6,2.5-9.2,0
			l-21.4-21.3c-2.5-2.6-6.6-2.6-9.2-0.1c-2.6,2.5-2.6,6.6-0.1,9.2c0.1,0.1,0.1,0.1,0.2,0.2l21.4,21.3c7.6,7.6,20,7.6,27.6,0
			l27.6-27.6c7.6-7.6,7.6-20,0-27.6l-14.5-14.5c-1.9-1.9-2.5-4.9-1.3-7.3c2.9-5.7,5.3-11.6,7.3-17.6c0.9-2.6,3.3-4.3,6.1-4.3h20.4
			c10.8,0,19.5-8.7,19.5-19.5v-39C435,190.2,426.3,181.5,415.5,181.5z"/>
	</g>
</g>
<g>
	<g>
		<linearGradient id="SVGID_4_" gradientUnits="userSpaceOnUse" x1="197.9277" y1="209.1362" x2="343.96" y2="209.1362">
			<stop  offset="0" style="stop-color:#00EFD1"/>
			<stop  offset="1" style="stop-color:#00ACEA"/>
		</linearGradient>
		<path class="st3" d="M319.2,160.8c-33-32.9-86.5-32.9-119.5,0c-2.5,2.6-2.4,6.7,0.2,9.2c2.5,2.4,6.5,2.4,9,0
			c27.7-28.1,73-28.4,101.1-0.7s28.4,73,0.7,101.1c-0.2,0.2-0.5,0.5-0.7,0.7c-2.6,2.5-2.7,6.6-0.2,9.2c2.5,2.6,6.6,2.7,9.2,0.2
			c0.1-0.1,0.1-0.1,0.2-0.2C352.2,247.2,352.2,193.8,319.2,160.8z"/>
	</g>
</g>
</svg>
