<?xml version="1.0" encoding="utf-8"?>
<!-- Generator: Adobe Illustrator 24.3.0, SVG Export Plug-In . SVG Version: 6.00 Build 0)  -->
<svg version="1.1" id="Capa_1" xmlns="http://www.w3.org/2000/svg" xmlns:xlink="http://www.w3.org/1999/xlink" x="0px" y="0px"
	 viewBox="0 0 512 512" style="enable-background:new 0 0 512 512;" xml:space="preserve">
<style type="text/css">
	.st0{fill:url(#SVGID_1_);}
	.st1{fill:url(#SVGID_2_);}
</style>
<g>
	<g>
		<linearGradient id="SVGID_1_" gradientUnits="userSpaceOnUse" x1="330.7826" y1="368.1739" x2="345.7391" y2="368.1739">
			<stop  offset="0" style="stop-color:#00EFD1"/>
			<stop  offset="1" style="stop-color:#00ACEA"/>
		</linearGradient>
		<path class="st0" d="M338.3,360.7c-4.1,0-7.5,3.4-7.5,7.5s3.4,7.5,7.5,7.5s7.5-3.4,7.5-7.5S342.4,360.7,338.3,360.7z"/>
	</g>
</g>
<g>
	<g>
		<linearGradient id="SVGID_2_" gradientUnits="userSpaceOnUse" x1="84" y1="256" x2="428" y2="256">
			<stop  offset="0" style="stop-color:#00EFD1"/>
			<stop  offset="1" style="stop-color:#00ACEA"/>
		</linearGradient>
		<path class="st1" d="M356.7,336.5l-35.5-11.8l-12.8-25.5c11.5-11.7,19.5-27.2,22.2-43.3l1.6-9.5h13.6c12.4,0,22.4-10.1,22.4-22.4
			v-47.1c0-61.9-50.3-112.2-112.2-112.2c-62,0-112.2,50.2-112.2,112.2v47.1c0,9.7,6.3,18.1,15,21.1v8.8c0,12.4,10.1,22.4,22.4,22.4
			h6.6c3.2,7,7.4,13.6,12.5,19.4c1.1,1.2,2.2,2.4,3.3,3.5l-12.8,25.5l-35.5,11.8C114,350.3,84,393.8,84,440c0,4.1,3.3,7.5,7.5,7.5
			h329c4.1,0,7.5-3.3,7.5-7.5C428,393.8,398,350.3,356.7,336.5z M353.2,223.8c0,4.1-3.4,7.5-7.5,7.5h-11.4
			c1.9-14.7,3.2-30.4,3.7-45.8c0-0.4,0-0.9,0-1.3h15.2V223.8z M166.3,231.3c-4.1,0-7.5-3.4-7.5-7.5v-39.6H174c0,0.8,0.1,1.6,0.1,2.4
			c0,0,0,0.1,0,0.1c0,0,0,0,0,0c0.5,15,1.8,30.3,3.6,44.7L166.3,231.3L166.3,231.3z M181.2,261.2c-4.1,0-7.5-3.4-7.5-7.5v-7.5h6.1
			l1.6,9.5c0.3,1.8,0.7,3.6,1.1,5.4H181.2z M173.8,169.3h-14.7c3.8-50.1,45.6-89.7,96.9-89.7c51.1,0,93.1,39.6,96.9,89.7h-14.7
			c-0.5-41.3-34.2-74.8-75.6-74.8h-13.4C207.9,94.5,174.3,128,173.8,169.3z M249.3,109.4h13.4c33.5,0,60.6,27.4,60.6,60.9
			c0,2.4,0,4.4-0.1,6.3c0,0,0,0,0,0.1l-9.4-1.3c-25.4-3.6-49.4-15.6-67.6-33.8c-1.4-1.4-3.3-2.2-5.3-2.2c-20.1,0-39.3,9.2-52,24.6
			C192.2,133.5,217.9,109.4,249.3,109.4z M198.1,261.2c-3.7-12.5-8-49.1-9-72.6l10.1-13.4c9.2-12.3,23.6-20,38.9-20.9
			c20.1,19.2,46.2,31.8,73.7,35.7l11,1.6c-0.7,15.6-2.2,31.3-4.4,45.7c0,0,0,0,0,0c-0.7,4.6-1.2,7.6-2.6,15.9
			c-4,23.8-21.7,45.2-45.1,51.1c-9.6,2.4-19.8,2.4-29.4,0c-14.6-3.7-28-13.8-36.7-28.3h15.2c3.1,8.7,11.4,15,21.1,15h15
			c12.4,0,22.4-10,22.4-22.4c0-12.4-10.1-22.4-22.4-22.4h-15c-10,0-18.2,6.4-21.2,15H198.1z M240.4,319.6c5.1,1.1,10.4,1.6,15.6,1.6
			c4.1,0,8.2-0.3,12.2-1l-13.2,14L240.4,319.6z M244.7,345.1L221,370.1c-6.5-12.5-12.1-25.5-16.7-38.8l8.9-17.8L244.7,345.1z
			 M297.6,311l10.2,20.3c-4.6,13.3-10.2,26.4-16.7,38.8l-25.4-25.4L297.6,311z M233.6,268.7c0-4.1,3.3-7.5,7.5-7.5h15
			c4.1,0,7.5,3.4,7.5,7.5c0,4.1-3.3,7.5-7.5,7.5h-15C236.9,276.2,233.6,272.8,233.6,268.7z M99.3,432.5c3-37,27.6-70.7,60.8-81.8
			l31.5-10.5c5.8,15.9,12.9,31.4,21.3,46.2c0,0,0,0.1,0,0.1c0,0,0,0,0,0c6.1,10.8,13,21.3,20.5,31.3l9.2,14.8H99.3z M256,425.8
			l-10.1-16.3c-0.1-0.2-0.2-0.4-0.4-0.5c-6.1-8.1-11.7-16.5-16.9-25.2l26.7-28.2l28.1,28.1c-5.2,8.7-10.8,17.2-16.9,25.3
			C266.1,409.5,266.7,408.7,256,425.8z M269.5,432.5l9.2-14.8c7.5-10,14.4-20.6,20.6-31.5c0-0.1,0.1-0.1,0.1-0.2c0,0,0,0,0,0
			c8.3-14.6,15.3-29.9,21.1-45.8l31.5,10.5c33.2,11.1,57.8,44.7,60.8,81.8H269.5L269.5,432.5z"/>
	</g>
</g>
</svg>
