<?xml version="1.0" encoding="utf-8"?>
<!-- Generator: Adobe Illustrator 24.3.0, SVG Export Plug-In . SVG Version: 6.00 Build 0)  -->
<svg version="1.1" id="Layer_1" xmlns="http://www.w3.org/2000/svg" xmlns:xlink="http://www.w3.org/1999/xlink" x="0px" y="0px"
	 viewBox="0 0 512 512" style="enable-background:new 0 0 512 512;" xml:space="preserve">
<style type="text/css">
	.st0{fill:url(#SVGID_1_);}
	.st1{fill:url(#SVGID_2_);}
</style>
<g>
	
		<linearGradient id="SVGID_1_" gradientUnits="userSpaceOnUse" x1="-179.832" y1="1071.1575" x2="-179.832" y2="987.1337" gradientTransform="matrix(5.2245 0 0 -5.2245 1195.5306 5646.7549)">
		<stop  offset="0" style="stop-color:#00EFD1"/>
		<stop  offset="1" style="stop-color:#00ACEA"/>
	</linearGradient>
	<path class="st0" d="M256,293.6c-129,0-200.1,61.1-200.1,171.9c0,8.9,6.8,15.7,15.7,15.7h368.8c8.9,0,15.7-6.8,15.7-15.7
		C456.1,354.7,385,293.6,256,293.6z M87.8,449.8C94,366.8,150.5,325,256,325s162,41.8,168.2,124.9H87.8z"/>
	
		<linearGradient id="SVGID_2_" gradientUnits="userSpaceOnUse" x1="-179.832" y1="1071.1575" x2="-179.832" y2="987.1337" gradientTransform="matrix(5.2245 0 0 -5.2245 1195.5306 5646.7549)">
		<stop  offset="0" style="stop-color:#00EFD1"/>
		<stop  offset="1" style="stop-color:#00ACEA"/>
	</linearGradient>
	<path class="st1" d="M256,270.6c57.5,0,104-50.7,104-112.8C360,97.2,315,51.7,256,51.7S152,97.2,152,157.8
		C152,220,198.5,270.6,256,270.6z M256,83.1c41.3,0,72.6,31.9,72.6,74.7c0,44.9-32.4,81.5-72.6,81.5s-72.6-36.6-72.6-81.5
		C183.4,114.4,213.7,83.1,256,83.1z"/>
</g>
</svg>
