<?xml version="1.0" encoding="utf-8"?>
<!-- Generator: Adobe Illustrator 24.3.0, SVG Export Plug-In . SVG Version: 6.00 Build 0)  -->
<svg version="1.1" id="Layer_1" xmlns="http://www.w3.org/2000/svg" xmlns:xlink="http://www.w3.org/1999/xlink" x="0px" y="0px"
	 viewBox="0 0 479 479" style="enable-background:new 0 0 479 479;" xml:space="preserve">
<style type="text/css">
	.st0{fill:url(#SVGID_1_);}
	.st1{fill:url(#SVGID_2_);}
	.st2{fill:url(#SVGID_3_);}
	.st3{fill:url(#SVGID_4_);}
	.st4{fill:url(#SVGID_5_);}
	.st5{fill:url(#SVGID_6_);}
	.st6{fill:url(#SVGID_7_);}
	.st7{fill:url(#SVGID_8_);}
	.st8{fill:url(#SVGID_9_);}
</style>
<linearGradient id="SVGID_1_" gradientUnits="userSpaceOnUse" x1="383.2083" y1="164.6243" x2="399.1759" y2="164.6243">
	<stop  offset="0" style="stop-color:#00EFD1"/>
	<stop  offset="1" style="stop-color:#00ACEA"/>
</linearGradient>
<path class="st0" d="M383.2,148.7h16v31.9h-16V148.7z"/>
<linearGradient id="SVGID_2_" gradientUnits="userSpaceOnUse" x1="351.2729" y1="164.6243" x2="367.2406" y2="164.6243">
	<stop  offset="0" style="stop-color:#00EFD1"/>
	<stop  offset="1" style="stop-color:#00ACEA"/>
</linearGradient>
<path class="st1" d="M351.3,148.7h16v31.9h-16V148.7z"/>
<linearGradient id="SVGID_3_" gradientUnits="userSpaceOnUse" x1="319.3376" y1="164.6243" x2="335.3053" y2="164.6243">
	<stop  offset="0" style="stop-color:#00EFD1"/>
	<stop  offset="1" style="stop-color:#00ACEA"/>
</linearGradient>
<path class="st2" d="M319.3,148.7h16v31.9h-16V148.7z"/>
<linearGradient id="SVGID_4_" gradientUnits="userSpaceOnUse" x1="287.4023" y1="164.6243" x2="303.37" y2="164.6243">
	<stop  offset="0" style="stop-color:#00EFD1"/>
	<stop  offset="1" style="stop-color:#00ACEA"/>
</linearGradient>
<path class="st3" d="M287.4,148.7h16v31.9h-16V148.7z"/>
<linearGradient id="SVGID_5_" gradientUnits="userSpaceOnUse" x1="383.2083" y1="308.3333" x2="399.1759" y2="308.3333">
	<stop  offset="0" style="stop-color:#00EFD1"/>
	<stop  offset="1" style="stop-color:#00ACEA"/>
</linearGradient>
<path class="st4" d="M383.2,300.3h16v16h-16V300.3z"/>
<linearGradient id="SVGID_6_" gradientUnits="userSpaceOnUse" x1="351.2729" y1="308.3333" x2="367.2406" y2="308.3333">
	<stop  offset="0" style="stop-color:#00EFD1"/>
	<stop  offset="1" style="stop-color:#00ACEA"/>
</linearGradient>
<path class="st5" d="M351.3,300.3h16v16h-16V300.3z"/>
<linearGradient id="SVGID_7_" gradientUnits="userSpaceOnUse" x1="319.3376" y1="308.3333" x2="335.3053" y2="308.3333">
	<stop  offset="0" style="stop-color:#00EFD1"/>
	<stop  offset="1" style="stop-color:#00ACEA"/>
</linearGradient>
<path class="st6" d="M319.3,300.3h16v16h-16V300.3z"/>
<linearGradient id="SVGID_8_" gradientUnits="userSpaceOnUse" x1="287.4023" y1="308.3333" x2="303.37" y2="308.3333">
	<stop  offset="0" style="stop-color:#00EFD1"/>
	<stop  offset="1" style="stop-color:#00ACEA"/>
</linearGradient>
<path class="st7" d="M287.4,300.3h16v16h-16V300.3z"/>
<linearGradient id="SVGID_9_" gradientUnits="userSpaceOnUse" x1="39.9059" y1="240.4707" x2="439.0951" y2="240.4707">
	<stop  offset="0" style="stop-color:#00EFD1"/>
	<stop  offset="1" style="stop-color:#00ACEA"/>
</linearGradient>
<path class="st8" d="M59.9,269.9v40.4c0,18.4,14.9,33.2,33.3,33.3h120.3l118.4,56.8c7.4,3.6,15.9,4,23.7,1.3
	c7.8-2.7,14.1-8.5,17.6-15.9l20.6-43.2c14.9-3.6,25.4-16.9,25.4-32.2v-21.2l16.9-35.6c7.4-15.5,0.8-34-14.6-41.4l-2.3-1.1V164
	c0-18.4-14.9-33.2-33.3-33.3H251.7L147.2,80.5c-7.4-3.6-15.9-4-23.7-1.3c-7.8,2.7-14.1,8.5-17.6,15.9l-17.1,36
	c-16.5,2.2-28.8,16.2-28.9,32.8v27.8l-16.9,35.6c-7.3,15.5-0.8,34,14.6,41.4L59.9,269.9z M419.1,226.3c6.4,5.2,8.4,14.1,4.9,21.5
	l-4.9,10.3V226.3z M361.1,380c-2,4.2-5.6,7.5-10,9.1c-4.4,1.6-9.3,1.3-13.5-0.7l-93.4-44.8h134.3L361.1,380z M405.8,310.3
	c0,11-8.9,20-20,20H166.3v-76.9c14.8,14.2,34.5,22.2,55.1,22.1v-13.3c-17.1,0-33.5-6.6-45.8-18.4h230.3V310.3z M172.5,226.4
	l13.1-32.9c2.6-6.4,9.2-10.2,16-9.3c6.8,0.9,12.2,6.3,13,13.1c0.9,6.8-3,13.4-9.4,15.9L172.5,226.4z M385.9,144c11,0,20,8.9,20,20
	v66.5H197.9l12.3-4.9c12.1-4.8,19.4-17.1,17.8-30c-1.6-12.9-11.8-23-24.6-24.7c-12.9-1.7-25.2,5.6-30.1,17.7l-6.9,17.4v-62H385.9z
	 M117.9,100.9c2-4.2,5.6-7.5,10-9.1c4.4-1.6,9.3-1.3,13.5,0.7l79.6,38.2H103.7L117.9,100.9z M73.2,164c0-11,8.9-20,20-20H153v57.3
	l-5.1-12.8c-4.8-12-17.2-19.2-30-17.5c-12.8,1.7-22.9,11.8-24.5,24.6c-1.6,12.8,5.6,25.2,17.6,30l12.3,4.9H73.2V164z M148.7,226.4
	l-32.7-13.2c-6.4-2.5-10.4-9.1-9.5-16c0.8-6.9,6.2-12.3,13.1-13.2s13.5,3,16,9.4L148.7,226.4z M73.2,243.8h72.4
	c-12.3,11.8-28.8,18.4-45.8,18.4v13.3c19.7,0,38.6-7.3,53.2-20.5v75.2H93.1c-11,0-20-8.9-20-20V243.8z M55,233.1l4.9-10.3v31.8
	C53.4,249.4,51.4,240.5,55,233.1z"/>
</svg>
